<svg width="1584" height="396" viewBox="0 0 1584 396" fill="none" xmlns="http://www.w3.org/2000/svg">
<rect width="1584" height="396" fill="#F5F5F5"/>
<g id="Awesome banner" clip-path="url(#clip0_0_1)">
<rect width="1584" height="396" fill="url(#paint0_linear_0_1)"/>
<ellipse id="Ellipse 2" cx="323" cy="64" rx="285" ry="288" fill="url(#paint1_linear_0_1)" fill-opacity="0.1"/>
<g id="copyright">
<path d="M75.95 334.52L72.30 334.52L72.30 311.16L77.20 311.16L83.70 330.04Q83.60 329.02 83.50 327.62Q83.41 326.23 83.33 324.79Q83.25 323.35 83.25 322.23L83.25 311.16L86.90 311.16L86.90 334.52L82 334.52L75.57 315.64Q75.63 316.57 75.73 317.88Q75.82 319.19 75.89 320.57Q75.95 321.94 75.95 323.10L75.95 334.52M98.80 334.84Q96.46 334.84 94.67 333.96Q92.88 333.08 91.89 331.53Q90.90 329.98 90.90 327.93Q90.90 325.78 92.13 324.18Q93.36 322.58 95.34 322.17L95.34 322.10Q93.65 321.75 92.61 320.38Q91.57 319 91.57 317.11Q91.57 315.26 92.48 313.85Q93.39 312.44 95.02 311.64Q96.66 310.84 98.80 310.84Q100.94 310.84 102.59 311.64Q104.24 312.44 105.15 313.85Q106.06 315.26 106.06 317.11Q106.06 319 105.01 320.38Q103.95 321.75 102.26 322.10L102.26 322.17Q104.24 322.58 105.47 324.18Q106.70 325.78 106.70 327.93Q106.70 329.98 105.71 331.53Q104.72 333.08 102.93 333.96Q101.14 334.84 98.80 334.84M98.80 320.73Q100.30 320.73 101.23 319.82Q102.16 318.90 102.16 317.46Q102.16 315.99 101.23 315.08Q100.30 314.17 98.80 314.17Q97.30 314.17 96.37 315.08Q95.44 315.99 95.44 317.46Q95.44 318.90 96.37 319.82Q97.30 320.73 98.80 320.73M98.80 331.45Q100.56 331.45 101.68 330.42Q102.80 329.40 102.80 327.74Q102.80 326.04 101.68 325Q100.56 323.96 98.80 323.96Q97.04 323.96 95.92 325Q94.80 326.04 94.80 327.74Q94.80 329.40 95.92 330.42Q97.04 331.45 98.80 331.45M114.35 334.52L110.70 334.52L110.70 311.16L115.60 311.16L122.10 330.04Q122 329.02 121.90 327.62Q121.81 326.23 121.73 324.79Q121.65 323.35 121.65 322.23L121.65 311.16L125.30 311.16L125.30 334.52L120.40 334.52L113.97 315.64Q114.03 316.57 114.13 317.88Q114.22 319.19 114.29 320.57Q114.35 321.94 114.35 323.10" fill="white" fill-opacity="0.9"/>
<path d="M161.48 325.24L151.24 325.24L151.24 322.68L161.48 322.68" fill="white" fill-opacity="0.9"/>
<path d="M195.02 334.84Q191.82 334.84 189.96 333.05Q188.11 331.26 188.11 328.12L188.11 317.56Q188.11 314.42 189.96 312.63Q191.82 310.84 195.02 310.84Q198.15 310.84 200.01 312.65Q201.87 314.46 201.87 317.56L198.99 317.56Q198.99 315.58 197.95 314.50Q196.91 313.43 195.02 313.43Q193.13 313.43 192.06 314.50Q190.99 315.58 190.99 317.56L190.99 328.12Q190.99 330.10 192.06 331.18Q193.13 332.25 195.02 332.25Q196.91 332.25 197.95 331.18Q198.99 330.10 198.99 328.12L201.87 328.12Q201.87 331.22 200.01 333.03Q198.15 334.84 195.02 334.84" fill="white" fill-opacity="0.9"/>
<path d="M213.96 334.84Q210.83 334.84 209 333.02Q207.18 331.19 207.18 327.80L207.18 317.88Q207.18 314.49 209 312.66Q210.83 310.84 213.96 310.84Q217.10 310.84 218.92 312.66Q220.75 314.49 220.75 317.85L220.75 327.80Q220.75 331.19 218.92 333.02Q217.10 334.84 213.96 334.84M213.96 332.25Q215.85 332.25 216.86 331.18Q217.87 330.10 217.87 328.12L217.87 317.56Q217.87 315.58 216.86 314.50Q215.85 313.43 213.96 313.43Q212.11 313.43 211.08 314.50Q210.06 315.58 210.06 317.56L210.06 328.12Q210.06 330.10 211.08 331.18Q212.11 332.25 213.96 332.25" fill="white" fill-opacity="0.9"/>
<path d="M228.65 334.52L225.87 334.52L225.87 311.16L230.12 311.16L233.10 321.27L236.20 311.16L240.46 311.16L240.46 334.52L237.67 334.52L237.67 323.48Q237.67 321.91 237.72 319.88Q237.77 317.85 237.87 315.77Q237.96 313.69 238.09 312.02L234.31 324.09L231.82 324.09L228.20 312.31Q228.46 314.68 228.55 317.50Q228.65 320.31 228.65 323.48" fill="white" fill-opacity="0.9"/>
<path d="M247.85 334.52L245.07 334.52L245.07 311.16L249.32 311.16L252.30 321.27L255.40 311.16L259.66 311.16L259.66 334.52L256.87 334.52L256.87 323.48Q256.87 321.91 256.92 319.88Q256.97 317.85 257.07 315.77Q257.16 313.69 257.29 312.02L253.51 324.09L251.02 324.09L247.40 312.31Q247.66 314.68 247.75 317.50Q247.85 320.31 247.85 323.48" fill="white" fill-opacity="0.9"/>
<path d="M271.56 334.84Q268.30 334.84 266.57 333.03Q264.84 331.22 264.84 328.12L264.84 311.16L267.72 311.16L267.72 328.12Q267.72 330.04 268.67 331.16Q269.61 332.28 271.56 332.28Q273.48 332.28 274.44 331.16Q275.40 330.04 275.40 328.12L275.40 311.16L278.28 311.16L278.28 328.12Q278.28 331.26 276.57 333.05Q274.86 334.84 271.56 334.84" fill="white" fill-opacity="0.9"/>
<path d="M286.83 334.52L284.04 334.52L284.04 311.16L287.88 311.16L295.02 331.16Q294.95 330.36 294.87 329.19Q294.79 328.02 294.75 326.73Q294.70 325.43 294.70 324.28L294.70 311.16L297.48 311.16L297.48 334.52L293.64 334.52L286.54 314.52Q286.60 315.29 286.67 316.46Q286.73 317.62 286.78 318.92Q286.83 320.22 286.83 321.40" fill="white" fill-opacity="0.9"/>
<path d="M316.20 334.52L303.72 334.52L303.72 331.90L308.49 331.90L308.49 313.78L303.72 313.78L303.72 311.16L316.20 311.16L316.20 313.78L311.43 313.78L311.43 331.90L316.20 331.90" fill="white" fill-opacity="0.9"/>
<path d="M330.60 334.52L327.72 334.52L327.72 313.78L321.32 313.78L321.32 311.16L337 311.16L337 313.78L330.60 313.78" fill="white" fill-opacity="0.9"/>
<path d="M349.80 334.52L346.92 334.52L346.92 325.78L339.88 311.16L342.95 311.16L347.50 320.76Q347.88 321.56 348.11 322.12Q348.33 322.68 348.39 322.94Q348.46 322.68 348.70 322.12Q348.94 321.56 349.32 320.76L353.87 311.16L356.84 311.16L349.80 325.78" fill="white" fill-opacity="0.9"/>
<path d="M382.83 334.52L380.04 334.52L380.04 311.16L383.88 311.16L391.02 331.16Q390.95 330.36 390.87 329.19Q390.79 328.02 390.75 326.73Q390.70 325.43 390.70 324.28L390.70 311.16L393.48 311.16L393.48 334.52L389.64 334.52L382.54 314.52Q382.60 315.29 382.67 316.46Q382.73 317.62 382.78 318.92Q382.83 320.22 382.83 321.40" fill="white" fill-opacity="0.9"/>
<path d="M405.96 334.84Q402.83 334.84 401 333.02Q399.18 331.19 399.18 327.80L399.18 317.88Q399.18 314.49 401 312.66Q402.83 310.84 405.96 310.84Q409.10 310.84 410.92 312.66Q412.75 314.49 412.75 317.85L412.75 327.80Q412.75 331.19 410.92 333.02Q409.10 334.84 405.96 334.84M405.96 332.25Q407.85 332.25 408.86 331.18Q409.87 330.10 409.87 328.12L409.87 317.56Q409.87 315.58 408.86 314.50Q407.85 313.43 405.96 313.43Q404.11 313.43 403.08 314.50Q402.06 315.58 402.06 317.56L402.06 328.12Q402.06 330.10 403.08 331.18Q404.11 332.25 405.96 332.25" fill="white" fill-opacity="0.9"/>
<path d="M424.55 334.52L418.51 334.52L418.51 311.16L424.55 311.16Q426.83 311.16 428.47 312.02Q430.12 312.89 431.03 314.46Q431.95 316.02 431.95 318.17L431.95 327.48Q431.95 329.62 431.03 331.21Q430.12 332.79 428.47 333.66Q426.83 334.52 424.55 334.52M421.39 313.72L421.39 331.96L424.55 331.96Q426.67 331.96 427.87 330.78Q429.07 329.59 429.07 327.48L429.07 318.17Q429.07 316.09 427.87 314.90Q426.67 313.72 424.55 313.72" fill="white" fill-opacity="0.9"/>
<path d="M451.40 334.52L437.96 334.52L437.96 311.16L451.40 311.16L451.40 313.78L440.81 313.78L440.81 321.02L450.28 321.02L450.28 323.58L440.81 323.58L440.81 331.90L451.40 331.90" fill="white" fill-opacity="0.9"/>
<path d="M463.69 334.84Q460.30 334.84 458.28 333.05Q456.27 331.26 456.27 328.12L459.15 328.12Q459.15 330.07 460.39 331.18Q461.64 332.28 463.69 332.28Q465.67 332.28 466.86 331.13Q468.04 329.98 468.04 328.12Q468.04 326.71 467.29 325.67Q466.54 324.63 465.13 324.25L461.58 323.26Q459.37 322.62 458.11 320.97Q456.84 319.32 456.84 317.08Q456.84 315.22 457.67 313.82Q458.51 312.41 460.01 311.62Q461.51 310.84 463.47 310.84Q465.45 310.84 466.97 311.62Q468.49 312.41 469.35 313.80Q470.22 315.19 470.22 317.02L467.34 317.02Q467.34 315.42 466.25 314.41Q465.16 313.40 463.47 313.40Q461.77 313.40 460.71 314.41Q459.66 315.42 459.66 317.02Q459.66 318.30 460.35 319.21Q461.03 320.12 462.28 320.47L465.93 321.50Q468.27 322.14 469.56 323.91Q470.86 325.69 470.86 328.12Q470.86 331.19 468.91 333.02Q466.95 334.84 463.69 334.84" fill="white" fill-opacity="0.9"/>
</g>
<path d="M74.25 197.64L72.16 197.64L72.16 180.12L75.04 180.12L80.39 195.12Q80.34 194.52 80.28 193.64Q80.22 192.77 80.19 191.80Q80.15 190.82 80.15 189.96L80.15 180.12L82.24 180.12L82.24 197.64L79.36 197.64L74.03 182.64Q74.08 183.22 74.13 184.09Q74.18 184.97 74.21 185.94Q74.25 186.91 74.25 187.80" fill="white" fill-opacity="0.7"/>
<path d="M91.60 197.88Q89.27 197.88 87.84 196.48Q86.42 195.07 86.42 192.60L86.42 189.48Q86.42 187.01 87.84 185.60Q89.27 184.20 91.60 184.20Q93.16 184.20 94.32 184.82Q95.49 185.45 96.14 186.58Q96.78 187.70 96.78 189.24L96.78 191.59L88.53 191.59L88.53 192.84Q88.53 194.30 89.37 195.16Q90.21 196.01 91.60 196.01Q92.80 196.01 93.58 195.54Q94.36 195.07 94.53 194.28L96.69 194.28Q96.47 195.94 95.08 196.91Q93.69 197.88 91.60 197.88M88.53 189.24L88.53 189.91L94.67 189.91L94.67 189.24Q94.67 187.68 93.87 186.83Q93.06 185.98 91.60 185.98Q90.14 185.98 89.33 186.83Q88.53 187.68 88.53 189.24" fill="white" fill-opacity="0.7"/>
<path d="M104.08 197.64L101.70 197.64L99.54 184.44L101.42 184.44L102.76 193.75Q102.83 194.28 102.90 194.92Q102.98 195.55 NaN 195.96Q103.05 195.55 103.11 194.92Q103.17 194.28 103.26 193.75L104.92 184.44L107.08 184.44L108.74 193.75Q108.83 194.28 108.92 194.92QNaN 195.55 109.02 195.96Q109.07 195.55 109.14 194.92Q109.22 194.28 109.29 193.75L110.68 184.44L112.46 184.44L110.20 197.64L107.82 197.64L106.31 188.52Q106.22 187.85 106.13 187.09Q106.05 186.34 NaN 185.93Q105.98 186.34 105.88 187.09Q105.78 187.85 105.66 188.52" fill="white" fill-opacity="0.7"/>
<path d="M139.48 197.64L130.12 197.64L130.12 195.67L133.70 195.67L133.70 182.09L130.12 182.09L130.12 180.12L139.48 180.12L139.48 182.09L135.90 182.09L135.90 195.67L139.48 195.67" fill="white" fill-opacity="0.7"/>
<path d="M146.37 197.64L144.21 197.64L144.21 184.44L146.37 184.44L146.37 186.96L146.39 186.96Q146.56 185.64 147.47 184.92Q148.38 184.20 149.90 184.20Q151.89 184.20 153.06 185.42Q154.24 186.65 154.24 188.76L154.24 197.64L152.08 197.64L152.08 189.14Q152.08 187.63 151.32 186.83Q150.57 186.02 149.27 186.02Q147.93 186.02 147.15 186.86Q146.37 187.70 146.37 189.24" fill="white" fill-opacity="0.7"/>
<path d="M162.83 197.88Q160.86 197.88 159.68 196.56Q158.49 195.24 158.49 192.98L158.49 189.12Q158.49 186.84 159.66 185.52Q160.84 184.20 162.83 184.20Q164.32 184.20 165.29 184.94Q166.26 185.69 166.46 186.96L166.48 186.96L166.43 183.96L166.43 180.12L168.59 180.12L168.59 197.64L166.43 197.64L166.43 195.12L166.41 195.12Q166.24 196.42 165.28 197.15Q164.32 197.88 162.83 197.88M163.55 196.01Q164.90 196.01 165.66 195.17Q166.43 194.33 166.43 192.84L166.43 189.24Q166.43 187.75 165.66 186.91Q164.90 186.07 163.55 186.07Q162.18 186.07 161.42 186.78Q160.65 187.49 160.65 189.12L160.65 192.96Q160.65 194.57 161.42 195.29Q162.18 196.01 163.55 196.01" fill="white" fill-opacity="0.7"/>
<path d="M184.12 197.64L172.84 197.64L172.84 195.67L177.52 195.67L177.52 186.41L173.32 186.41L173.32 184.44L179.68 184.44L179.68 195.67L184.12 195.67L184.12 197.64M178.36 182.06Q177.57 182.06 177.11 181.66Q176.66 181.25 176.66 180.55Q176.66 179.83 177.11 179.41Q177.57 178.99 178.36 178.99Q179.15 178.99 179.61 179.41Q180.06 179.83 180.06 180.55Q180.06 181.25 179.61 181.66Q179.15 182.06 178.36 182.06" fill="white" fill-opacity="0.7"/>
<path d="M191.25 197.88Q189.21 197.88 188.01 196.74Q186.81 195.60 186.81 193.75Q186.81 192.53 187.36 191.62Q187.91 190.70 188.90 190.19Q189.88 189.67 191.15 189.67L195.23 189.67L195.23 188.64Q195.23 186.07 192.42 186.07Q191.18 186.07 190.41 186.53Q189.64 186.98 189.59 187.80L187.43 187.80Q187.55 186.24 188.88 185.22Q190.22 184.20 192.42 184.20Q194.82 184.20 196.11 185.35Q197.39 186.50 197.39 188.57L197.39 197.64L195.26 197.64L195.26 195.24L195.21 195.24Q195.02 196.46 193.98 197.17Q192.95 197.88 191.25 197.88M191.78 196.06Q193.36 196.06 194.30 195.29Q195.23 194.52 195.23 193.20L195.23 191.35L191.39 191.35Q190.34 191.35 189.68 191.99Q189.02 192.62 189.02 193.68Q189.02 194.78 189.75 195.42Q190.48 196.06 191.78 196.06" fill="white" fill-opacity="0.7"/>
<path d="M217.41 197.64L215.20 197.64L219.76 180.12L222.66 180.12L227.20 197.64L225.02 197.64L223.86 192.98L218.56 192.98L217.41 197.64M220.34 185.74L218.99 191.16L223.41 191.16L222.06 185.76Q221.68 184.22 221.46 183.19Q221.25 182.16 221.20 181.85Q221.15 182.16 220.94 183.19Q220.72 184.22 220.34 185.74" fill="white" fill-opacity="0.7"/>
<path d="M236.13 197.83L235.07 197.83Q232.86 197.83 231.65 196.84Q230.44 195.84 230.44 194.02L232.60 194.02Q232.60 194.93 233.25 195.44Q233.90 195.96 235.07 195.96L236.13 195.96Q237.33 195.96 237.99 195.43Q238.65 194.90 238.65 193.94Q238.65 192.24 237.09 192.02L233.44 191.50Q232.10 191.30 231.35 190.38Q230.61 189.46 230.61 187.94Q230.61 186.22 231.80 185.23Q232.98 184.25 235.07 184.25L236.13 184.25Q238.05 184.25 239.26 185.20Q240.47 186.14 240.57 187.68L238.38 187.68Q238.34 186.98 237.72 186.53Q237.11 186.07 236.13 186.07L235.07 186.07Q233.97 186.07 233.34 186.58Q232.72 187.08 232.72 187.94Q232.72 189.34 233.99 189.53L237.40 190.01Q240.76 190.49 240.76 193.94Q240.76 195.79 239.55 196.81Q238.34 197.83 236.13 197.83" fill="white" fill-opacity="0.7"/>
<path d="M250.53 197.83L249.47 197.83Q247.26 197.83 246.05 196.84Q244.84 195.84 244.84 194.02LNaN 194.02QNaN 194.93 247.65 195.44Q248.30 195.96 249.47 195.96L250.53 195.96Q251.73 195.96 252.39 195.43Q253.05 194.90 253.05 193.94Q253.05 192.24 251.49 192.02L247.84 191.50Q246.50 191.30 245.75 190.38Q245.01 189.46 245.01 187.94Q245.01 186.22 246.20 185.23Q247.38 184.25 249.47 184.25L250.53 184.25Q252.45 184.25 253.66 185.20Q254.87 186.14 254.97 187.68L252.78 187.68Q252.74 186.98 252.12 186.53Q251.51 186.07 250.53 186.07L249.47 186.07Q248.37 186.07 247.74 186.58Q247.12 187.08 247.12 187.94Q247.12 189.34 248.39 189.53L251.80 190.01Q255.16 190.49 255.16 193.94Q255.16 195.79 253.95 196.81Q252.74 197.83 250.53 197.83" fill="white" fill-opacity="0.7"/>
<path d="M264.38 197.88Q262.10 197.88 260.73 196.52Q259.36 195.17 259.36 192.84L259.36 184.44L261.52 184.44L261.52 192.84Q261.52 194.28 262.29 195.13Q263.06 195.98 264.38 195.98Q265.72 195.98 266.50 195.13Q267.28 194.28 267.28 192.84L267.28 184.44L269.44 184.44L269.44 192.84Q269.44 195.17 268.05 196.52Q266.66 197.88 264.38 197.88" fill="white" fill-opacity="0.7"/>
<path d="M276.45 197.64L274.29 197.64L274.29 184.44L276.45 184.44L276.45 186.96L276.50 186.96Q276.66 185.69 277.58 184.94Q278.49 184.20 280.02 184.20Q282.09 184.20 283.20 185.44Q284.32 186.67 284.32 188.95L284.32 190.08L282.16 190.08L282.16 188.95Q282.16 186.07 279.35 186.07Q277.94 186.07 277.19 186.89Q276.45 187.70 276.45 189.24" fill="white" fill-opacity="0.7"/>
<path d="M292.05 197.88Q290.01 197.88 288.81 196.74Q287.61 195.60 287.61 193.75Q287.61 192.53 288.16 191.62Q288.71 190.70 289.70 190.19Q290.68 189.67 291.95 189.67L296.03 189.67L296.03 188.64Q296.03 186.07 293.22 186.07Q291.98 186.07 291.21 186.53Q290.44 186.98 290.39 187.80L288.23 187.80Q288.35 186.24 289.68 185.22Q291.02 184.20 293.22 184.20Q295.62 184.20 296.91 185.35Q298.19 186.50 298.19 188.57L298.19 197.64L296.06 197.64L296.06 195.24L296.01 195.24Q295.82 196.46 294.78 197.17Q293.75 197.88 292.05 197.88M292.58 196.06Q294.16 196.06 295.10 195.29Q296.03 194.52 296.03 193.20L296.03 191.35L292.19 191.35Q291.14 191.35 290.48 191.99Q289.82 192.62 289.82 193.68Q289.82 194.78 290.55 195.42Q291.28 196.06 292.58 196.06" fill="white" fill-opacity="0.7"/>
<path d="M304.77 197.64L302.61 197.64L302.61 184.44L304.77 184.44L304.77 186.96L304.79 186.96Q304.96 185.64 305.87 184.92Q306.78 184.20 308.30 184.20Q310.29 184.20 311.46 185.42Q312.64 186.65 312.64 188.76L312.64 197.64L310.48 197.64L310.48 189.14Q310.48 187.63 309.72 186.83Q308.97 186.02 307.67 186.02Q306.33 186.02 305.55 186.86Q304.77 187.70 304.77 189.24" fill="white" fill-opacity="0.7"/>
<path d="M322.19 197.88Q319.79 197.88 318.35 196.54Q316.91 195.19 316.91 192.84L316.91 189.24Q316.91 186.89 318.35 185.54Q319.79 184.20 322.19 184.20Q324.47 184.20 325.88 185.42Q327.28 186.65 327.35 188.76L325.19 188.76Q325.12 187.49 324.33 186.80Q323.54 186.12 322.19 186.12Q320.78 186.12 319.92 186.92Q319.07 187.73 319.07 189.22L319.07 192.84Q319.07 194.33 319.92 195.14Q320.78 195.96 322.19 195.96Q323.54 195.96 324.33 195.26Q325.12 194.57 325.19 193.32L327.35 193.32Q327.28 195.43 325.88 196.66Q324.47 197.88 322.19 197.88" fill="white" fill-opacity="0.7"/>
<path d="M336.40 197.88Q334.07 197.88 332.64 196.48Q331.22 195.07 331.22 192.60L331.22 189.48Q331.22 187.01 332.64 185.60Q334.07 184.20 336.40 184.20Q337.96 184.20 339.12 184.82Q340.29 185.45 340.94 186.58Q341.58 187.70 341.58 189.24L341.58 191.59L333.33 191.59L333.33 192.84Q333.33 194.30 334.17 195.16Q335.01 196.01 336.40 196.01Q337.60 196.01 338.38 195.54Q339.16 195.07 339.33 194.28L341.49 194.28Q341.27 195.94 339.88 196.91Q338.49 197.88 336.40 197.88M333.33 189.24L333.33 189.91L339.47 189.91L339.47 189.24Q339.47 187.68 338.67 186.83Q337.86 185.98 336.40 185.98Q334.94 185.98 334.13 186.83Q333.33 187.68 333.33 189.24" fill="white" fill-opacity="0.7"/>
<path d="M362.37 201.96L360.21 201.96L360.21 184.44L362.37 184.44L362.37 186.96L362.39 186.96Q362.56 185.66 363.52 184.93Q364.48 184.20 365.97 184.20Q367.96 184.20 369.14 185.51Q370.31 186.82 370.31 189.10L370.31 192.96Q370.31 195.24 369.14 196.56Q367.96 197.88 365.97 197.88Q364.48 197.88 363.52 197.14Q362.56 196.39 362.39 195.12L362.32 195.12L362.37 198.12L362.37 201.96M365.25 196.01Q366.62 196.01 367.38 195.29Q368.15 194.57 368.15 192.96L368.15 189.12Q368.15 187.49 367.38 186.78Q366.62 186.07 365.25 186.07Q363.93 186.07 363.15 186.91Q362.37 187.75 362.37 189.24L362.37 192.84Q362.37 194.33 363.15 195.17Q363.93 196.01 365.25 196.01" fill="white" fill-opacity="0.7"/>
<path d="M379.60 197.83Q377.22 197.83 375.82 196.44Q374.42 195.05 374.42 192.55L374.42 189.53Q374.42 187.01 375.81 185.63Q377.20 184.25 379.60 184.25Q382 184.25 383.39 185.63Q384.78 187.01 384.78 189.53L384.78 192.55Q384.78 195.05 383.38 196.44Q381.98 197.83 379.60 197.83M379.60 195.91Q381.02 195.91 381.82 195.12Q382.62 194.33 382.62 192.79L382.62 189.29Q382.62 187.75 381.82 186.96Q381.02 186.17 379.60 186.17Q378.21 186.17 377.39 186.96Q376.58 187.75 376.58 189.29L376.58 192.79Q376.58 194.33 377.39 195.12Q378.21 195.91 379.60 195.91" fill="white" fill-opacity="0.7"/>
<path d="M400 197.64L395.92 197.64Q394.17 197.64 393.12 196.62Q392.08 195.60 392.08 193.92L392.08 182.09L387.52 182.09L387.52 180.12L394.24 180.12L394.24 193.92Q394.24 194.74 394.70 195.20Q395.15 195.67 395.92 195.67L400 195.67" fill="white" fill-opacity="0.7"/>
<path d="M414.52 197.64L403.24 197.64L403.24 195.67L407.92 195.67L407.92 186.41L403.72 186.41L403.72 184.44L410.08 184.44L410.08 195.67L414.52 195.67L414.52 197.64M408.76 182.06Q407.97 182.06 407.51 181.66Q407.06 181.25 407.06 180.55Q407.06 179.83 407.51 179.41Q407.97 178.99 408.76 178.99Q409.55 178.99 410.01 179.41Q410.46 179.83 410.46 180.55Q410.46 181.25 410.01 181.66Q409.55 182.06 408.76 182.06" fill="white" fill-opacity="0.7"/>
<path d="M422.99 197.88Q420.59 197.88 419.15 196.54Q417.71 195.19 417.71 192.84L417.71 189.24Q417.71 186.89 419.15 185.54Q420.59 184.20 422.99 184.20Q425.27 184.20 426.68 185.42Q428.08 186.65 428.15 188.76L425.99 188.76Q425.92 187.49 425.13 186.80Q424.34 186.12 422.99 186.12Q421.58 186.12 420.72 186.92Q419.87 187.73 419.87 189.22L419.87 192.84Q419.87 194.33 420.72 195.14Q421.58 195.96 422.99 195.96Q424.34 195.96 425.13 195.26Q425.92 194.57 425.99 193.32L428.15 193.32Q428.08 195.43 426.68 196.66Q425.27 197.88 422.99 197.88" fill="white" fill-opacity="0.7"/>
<path d="M443.32 197.64L432.04 197.64L432.04 195.67L436.72 195.67L436.72 186.41L432.52 186.41L432.52 184.44L438.88 184.44L438.88 195.67L443.32 195.67L443.32 197.64M437.56 182.06Q436.77 182.06 436.31 181.66Q435.86 181.25 435.86 180.55Q435.86 179.83 436.31 179.41Q436.77 178.99 437.56 178.99Q438.35 178.99 438.81 179.41Q439.26 179.83 439.26 180.55Q439.26 181.25 438.81 181.66Q438.35 182.06 437.56 182.06" fill="white" fill-opacity="0.7"/>
<path d="M451.60 197.88Q449.27 197.88 447.84 196.48Q446.42 195.07 446.42 192.60L446.42 189.48Q446.42 187.01 447.84 185.60Q449.27 184.20 451.60 184.20Q453.16 184.20 454.32 184.82Q455.49 185.45 456.14 186.58Q456.78 187.70 456.78 189.24L456.78 191.59L448.53 191.59L448.53 192.84Q448.53 194.30 449.37 195.16Q450.21 196.01 451.60 196.01Q452.80 196.01 453.58 195.54Q454.36 195.07 454.53 194.28L456.69 194.28Q456.47 195.94 455.08 196.91Q453.69 197.88 451.60 197.88M448.53 189.24L448.53 189.91L454.67 189.91L454.67 189.24Q454.67 187.68 453.87 186.83Q453.06 185.98 451.60 185.98Q450.14 185.98 449.33 186.83Q448.53 187.68 448.53 189.24" fill="white" fill-opacity="0.7"/>
<path d="M466.53 197.83L465.47 197.83Q463.26 197.83 462.05 196.84Q460.84 195.84 460.84 194.02L463 194.02Q463 194.93 463.65 195.44Q464.30 195.96 465.47 195.96L466.53 195.96Q467.73 195.96 468.39 195.43Q469.05 194.90 469.05 193.94Q469.05 192.24 467.49 192.02L463.84 191.50Q462.50 191.30 461.75 190.38Q461.01 189.46 461.01 187.94Q461.01 186.22 462.20 185.23Q463.38 184.25 465.47 184.25L466.53 184.25Q468.45 184.25 469.66 185.20Q470.87 186.14 470.97 187.68L468.78 187.68Q468.74 186.98 468.12 186.53Q467.51 186.07 466.53 186.07L465.47 186.07Q464.37 186.07 463.74 186.58Q463.12 187.08 463.12 187.94Q463.12 189.34 464.39 189.53L467.80 190.01Q471.16 190.49 471.16 193.94Q471.16 195.79 469.95 196.81Q468.74 197.83 466.53 197.83" fill="white" fill-opacity="0.7"/>
<path d="M480.40 187.75Q479.42 187.75 478.91 187.27Q478.41 186.79 478.41 185.98Q478.41 185.16 478.91 184.68Q479.42 184.20 480.40 184.20Q481.38 184.20 481.89 184.68Q482.39 185.16 482.39 185.98Q482.39 186.79 481.89 187.27Q481.38 187.75 480.40 187.75M480.40 197.88Q479.42 197.88 478.91 197.40Q478.41 196.92 478.41 196.10Q478.41 195.29 478.91 194.81Q479.42 194.33 480.40 194.33Q481.38 194.33 481.89 194.81Q482.39 195.29 482.39 196.10Q482.39 196.92 481.89 197.40Q481.38 197.88 480.40 197.88" fill="white" fill-opacity="0.7"/>
<path d="M505.82 197.64L503.73 197.64L503.73 180.12L506.92 180.12L509.15 187.70L511.48 180.12L514.67 180.12L514.67 197.64L512.58 197.64L512.58 189.36Q512.58 188.18 512.62 186.66Q512.66 185.14 512.73 183.58Q512.80 182.02 512.90 180.77L510.06 189.82L508.19 189.82L505.48 180.98Q505.67 182.76 505.74 184.87Q505.82 186.98 505.82 189.36" fill="white" fill-opacity="0.7"/>
<path d="M523.60 197.83Q521.22 197.83 519.82 196.44Q518.42 195.05 518.42 192.55L518.42 189.53Q518.42 187.01 519.81 185.63Q521.20 184.25 523.60 184.25Q526 184.25 527.39 185.63Q528.78 187.01 528.78 189.53L528.78 192.55Q528.78 195.05 527.38 196.44Q525.98 197.83 523.60 197.83M523.60 195.91Q525.02 195.91 525.82 195.12Q526.62 194.33 526.62 192.79L526.62 189.29Q526.62 187.75 525.82 186.96Q525.02 186.17 523.60 186.17Q522.21 186.17 521.39 186.96Q520.58 187.75 520.58 189.29L520.58 192.79Q520.58 194.33 521.39 195.12Q522.21 195.91 523.60 195.91" fill="white" fill-opacity="0.7"/>
<path d="M543.16 197.64L539.32 197.64Q537.69 197.64 536.70 196.69Q535.72 195.74 535.72 194.16L535.72 186.41L531.93 186.41L531.93 184.44L535.72 184.44L535.72 180.72L537.88 180.72L537.88 184.44L543.28 184.44L543.28 186.41L537.88 186.41L537.88 194.16Q537.88 194.83 538.28 195.25Q538.67 195.67 539.32 195.67L543.16 195.67" fill="white" fill-opacity="0.7"/>
<path d="M552.40 197.83Q550.02 197.83 548.62 196.44Q547.22 195.05 547.22 192.55L547.22 189.53Q547.22 187.01 548.61 185.63Q550 184.25 552.40 184.25Q554.80 184.25 556.19 185.63Q557.58 187.01 557.58 189.53L557.58 192.55Q557.58 195.05 556.18 196.44Q554.78 197.83 552.40 197.83M552.40 195.91Q553.82 195.91 554.62 195.12Q555.42 194.33 555.42 192.79L555.42 189.29Q555.42 187.75 554.62 186.96Q553.82 186.17 552.40 186.17Q551.01 186.17 550.19 186.96Q549.38 187.75 549.38 189.29L549.38 192.79Q549.38 194.33 550.19 195.12Q551.01 195.91 552.40 195.91" fill="white" fill-opacity="0.7"/>
<path d="M564.45 197.64L562.29 197.64L562.29 184.44L564.45 184.44L564.45 186.96L564.50 186.96Q564.66 185.69 565.58 184.94Q566.49 184.20 568.02 184.20Q570.09 184.20 571.20 185.44Q572.32 186.67 572.32 188.95L572.32 190.08L570.16 190.08L570.16 188.95Q570.16 186.07 567.35 186.07Q565.94 186.07 565.19 186.89Q564.45 187.70 564.45 189.24" fill="white" fill-opacity="0.7"/>
<path d="M581.27 201.48L579.04 201.48L580.36 194.14L582.95 194.14" fill="white" fill-opacity="0.7"/>
<path d="M607.19 197.64L605.03 197.64L605.03 180.12L607.19 180.12L607.19 187.61L612.81 187.61L612.81 180.12L614.97 180.12L614.97 197.64L612.81 197.64L612.81 189.58L607.19 189.58" fill="white" fill-opacity="0.7"/>
<path d="M624.40 197.88Q622.07 197.88 620.64 196.48Q619.22 195.07 619.22 192.60L619.22 189.48Q619.22 187.01 620.64 185.60Q622.07 184.20 624.40 184.20Q625.96 184.20 627.12 184.82Q628.29 185.45 628.94 186.58Q629.58 187.70 629.58 189.24L629.58 191.59L621.33 191.59L621.33 192.84Q621.33 194.30 622.17 195.16Q623.01 196.01 624.40 196.01Q625.60 196.01 626.38 195.54Q627.16 195.07 627.33 194.28L629.49 194.28Q629.27 195.94 627.88 196.91Q626.49 197.88 624.40 197.88M621.33 189.24L621.33 189.91L627.47 189.91L627.47 189.24Q627.47 187.68 626.67 186.83Q625.86 185.98 624.40 185.98Q622.94 185.98 622.13 186.83Q621.33 187.68 621.33 189.24" fill="white" fill-opacity="0.7"/>
<path d="M637.65 197.88Q635.61 197.88 634.41 196.74Q633.21 195.60 633.21 193.75Q633.21 192.53 633.76 191.62Q634.31 190.70 635.30 190.19Q636.28 189.67 637.55 189.67L641.63 189.67L641.63 188.64Q641.63 186.07 638.82 186.07Q637.58 186.07 636.81 186.53Q636.04 186.98 635.99 187.80L633.83 187.80Q633.95 186.24 635.28 185.22Q636.62 184.20 638.82 184.20Q641.22 184.20 642.51 185.35Q643.79 186.50 643.79 188.57L643.79 197.64L641.66 197.64L641.66 195.24L641.61 195.24Q641.42 196.46 640.38 197.17Q639.35 197.88 637.65 197.88M638.18 196.06Q639.76 196.06 640.70 195.29Q641.63 194.52 641.63 193.20L641.63 191.35L637.79 191.35Q636.74 191.35 636.08 191.99Q635.42 192.62 635.42 193.68Q635.42 194.78 636.15 195.42Q636.88 196.06 638.18 196.06" fill="white" fill-opacity="0.7"/>
<path d="M659.20 197.64L655.12 197.64Q653.37 197.64 652.32 196.62Q651.28 195.60 651.28 193.92L651.28 182.09L646.72 182.09L646.72 180.12L653.44 180.12L653.44 193.92Q653.44 194.74 653.90 195.20Q654.35 195.67 655.12 195.67L659.20 195.67" fill="white" fill-opacity="0.7"/>
<path d="M672.76 197.64L668.92 197.64Q667.29 197.64 666.30 196.69Q665.32 195.74 665.32 194.16L665.32 186.41L661.53 186.41L661.53 184.44L665.32 184.44L665.32 180.72L667.48 180.72L667.48 184.44L672.88 184.44L672.88 186.41L667.48 186.41L667.48 194.16Q667.48 194.83 667.88 195.25Q668.27 195.67 668.92 195.67L672.76 195.67" fill="white" fill-opacity="0.7"/>
<path d="M679.17 197.64L677.01 197.64L677.01 180.12L679.17 180.12L679.17 186.96L679.19 186.96Q679.36 185.64 680.27 184.92Q681.18 184.20 682.70 184.20Q684.69 184.20 685.86 185.42Q687.04 186.65 687.04 188.76L687.04 197.64L684.88 197.64L684.88 189.12Q684.88 187.63 684.12 186.83Q683.37 186.02 682.07 186.02Q680.73 186.02 679.95 186.86Q679.17 187.70 679.17 189.24" fill="white" fill-opacity="0.7"/>
<path d="M696.47 201.48L694.24 201.48L695.56 194.14L698.15 194.14" fill="white" fill-opacity="0.7"/>
<path d="M726.28 197.64L724.12 197.64L724.12 182.09L719.32 182.09L719.32 180.12L731.08 180.12L731.08 182.09L726.28 182.09" fill="white" fill-opacity="0.7"/>
<path d="M737.25 197.64L735.09 197.64L735.09 184.44L737.25 184.44L737.25 186.96L737.30 186.96Q737.46 185.69 738.38 184.94Q739.29 184.20 740.82 184.20Q742.89 184.20 744 185.44Q745.12 186.67 745.12 188.95L745.12 190.08L742.96 190.08L742.96 188.95Q742.96 186.07 740.15 186.07Q738.74 186.07 737.99 186.89Q737.25 187.70 737.25 189.24" fill="white" fill-opacity="0.7"/>
<path d="M752.85 197.88Q750.81 197.88 749.61 196.74Q748.41 195.60 748.41 193.75Q748.41 192.53 748.96 191.62Q749.51 190.70 750.50 190.19Q751.48 189.67 752.75 189.67L756.83 189.67L756.83 188.64Q756.83 186.07 754.02 186.07Q752.78 186.07 752.01 186.53Q751.24 186.98 751.19 187.80L749.03 187.80Q749.15 186.24 750.48 185.22Q751.82 184.20 754.02 184.20Q756.42 184.20 757.71 185.35Q758.99 186.50 758.99 188.57L758.99 197.64L756.86 197.64L756.86 195.24L756.81 195.24Q756.62 196.46 755.58 197.17Q754.55 197.88 752.85 197.88M753.38 196.06Q754.96 196.06 755.90 195.29Q756.83 194.52 756.83 193.20L756.83 191.35L752.99 191.35Q751.94 191.35 751.28 191.99Q750.62 192.62 750.62 193.68Q750.62 194.78 751.35 195.42Q752.08 196.06 753.38 196.06" fill="white" fill-opacity="0.7"/>
<path d="M769.82 197.64L766.98 197.64L762.50 184.44L764.82 184.44L767.70 193.32Q767.97 194.11 768.16 194.84Q768.35 195.58 768.45 195.98Q768.57 195.58 768.74 194.84Q768.90 194.11 769.14 193.32L772.02 184.44L774.30 184.44" fill="white" fill-opacity="0.7"/>
<path d="M782.80 197.88Q780.47 197.88 779.04 196.48Q777.62 195.07 777.62 192.60L777.62 189.48Q777.62 187.01 779.04 185.60Q780.47 184.20 782.80 184.20Q784.36 184.20 785.52 184.82Q786.69 185.45 787.34 186.58Q787.98 187.70 787.98 189.24L787.98 191.59L779.73 191.59L779.73 192.84Q779.73 194.30 780.57 195.16Q781.41 196.01 782.80 196.01Q784 196.01 784.78 195.54Q785.56 195.07 785.73 194.28L787.89 194.28Q787.67 195.94 786.28 196.91Q784.89 197.88 782.80 197.88M779.73 189.24L779.73 189.91L785.87 189.91L785.87 189.24Q785.87 187.68 785.07 186.83Q784.26 185.98 782.80 185.98Q781.34 185.98 780.53 186.83Q779.73 187.68 779.73 189.24" fill="white" fill-opacity="0.7"/>
<path d="M803.20 197.64L799.12 197.64Q797.37 197.64 796.32 196.62Q795.28 195.60 795.28 193.92L795.28 182.09L790.72 182.09L790.72 180.12L797.44 180.12L797.44 193.92Q797.44 194.74 797.90 195.20Q798.35 195.67 799.12 195.67L803.20 195.67" fill="white" fill-opacity="0.7"/>
<path d="M811.67 201.48L809.44 201.48L810.76 194.14L813.35 194.14" fill="white" fill-opacity="0.7"/>
<path d="M837.57 197.64L835.43 197.64L835.43 180.12L840.83 180.12Q842.39 180.12 843.57 180.76Q844.74 181.39 845.39 182.52Q846.04 183.65 846.04 185.16Q846.04 186.94 845.13 188.21Q844.22 189.48 842.70 189.98L846.28 197.64L843.90 197.64L840.47 190.20L837.57 190.20L837.57 197.64M837.57 182.06L837.57 188.26L840.83 188.26Q842.18 188.26 842.99 187.40Q843.81 186.55 843.81 185.16Q843.81 183.74 842.99 182.90Q842.18 182.06 840.83 182.06" fill="white" fill-opacity="0.7"/>
<path d="M854.78 197.88Q852.50 197.88 851.13 196.52Q849.76 195.17 849.76 192.84L849.76 184.44L851.92 184.44L851.92 192.84Q851.92 194.28 852.69 195.13Q853.46 195.98 854.78 195.98Q856.12 195.98 856.90 195.13Q857.68 194.28 857.68 192.84L857.68 184.44L859.84 184.44L859.84 192.84Q859.84 195.17 858.45 196.52Q857.06 197.88 854.78 197.88" fill="white" fill-opacity="0.7"/>
<path d="M866.85 197.64L864.69 197.64L864.69 184.44L866.85 184.44L866.85 186.96L866.90 186.96Q867.06 185.69 867.98 184.94Q868.89 184.20 870.42 184.20Q872.49 184.20 873.60 185.44Q874.72 186.67 874.72 188.95L874.72 190.08L872.56 190.08L872.56 188.95Q872.56 186.07 869.75 186.07Q868.34 186.07 867.59 186.89Q866.85 187.70 866.85 189.24" fill="white" fill-opacity="0.7"/>
<path d="M882.45 197.88Q880.41 197.88 879.21 196.74Q878.01 195.60 878.01 193.75Q878.01 192.53 878.56 191.62Q879.11 190.70 880.10 190.19Q881.08 189.67 882.35 189.67L886.43 189.67L886.43 188.64Q886.43 186.07 883.62 186.07Q882.38 186.07 881.61 186.53Q880.84 186.98 880.79 187.80L878.63 187.80Q878.75 186.24 880.08 185.22Q881.42 184.20 883.62 184.20Q886.02 184.20 887.31 185.35Q888.59 186.50 888.59 188.57L888.59 197.64L886.46 197.64L886.46 195.24L886.41 195.24Q886.22 196.46 885.18 197.17Q884.15 197.88 882.45 197.88M882.98 196.06Q884.56 196.06 885.50 195.29Q886.43 194.52 886.43 193.20L886.43 191.35L882.59 191.35Q881.54 191.35 880.88 191.99Q880.22 192.62 880.22 193.68Q880.22 194.78 880.95 195.42Q881.68 196.06 882.98 196.06" fill="white" fill-opacity="0.7"/>
<path d="M904 197.64L899.92 197.64Q898.17 197.64 897.12 196.62Q896.08 195.60 896.08 193.92L896.08 182.09L891.52 182.09L891.52 180.12L898.24 180.12L898.24 193.92Q898.24 194.74 898.70 195.20Q899.15 195.67 899.92 195.67L904 195.67" fill="white" fill-opacity="0.7"/>
<path d="M912.47 201.48L910.24 201.48L911.56 194.14L914.15 194.14" fill="white" fill-opacity="0.7"/>
<path d="M937.82 197.64L935.73 197.64L935.73 180.12L938.92 180.12L941.15 187.70L943.48 180.12L946.67 180.12L946.67 197.64L944.58 197.64L944.58 189.36Q944.58 188.18 944.62 186.66Q944.66 185.14 944.73 183.58Q944.80 182.02 944.90 180.77L942.06 189.82L940.19 189.82L937.48 180.98Q937.67 182.76 937.74 184.87Q937.82 186.98 937.82 189.36" fill="white" fill-opacity="0.7"/>
<path d="M954.45 197.88Q952.41 197.88 951.21 196.74Q950.01 195.60 950.01 193.75Q950.01 192.53 950.56 191.62Q951.11 190.70 952.10 190.19Q953.08 189.67 954.35 189.67L958.43 189.67L958.43 188.64Q958.43 186.07 955.62 186.07Q954.38 186.07 953.61 186.53Q952.84 186.98 952.79 187.80L950.63 187.80Q950.75 186.24 952.08 185.22Q953.42 184.20 955.62 184.20Q958.02 184.20 959.31 185.35Q960.59 186.50 960.59 188.57L960.59 197.64L958.46 197.64L958.46 195.24L958.41 195.24Q958.22 196.46 957.18 197.17Q956.15 197.88 954.45 197.88M954.98 196.06Q956.56 196.06 957.50 195.29Q958.43 194.52 958.43 193.20L958.43 191.35L954.59 191.35Q953.54 191.35 952.88 191.99Q952.22 192.62 952.22 193.68Q952.22 194.78 952.95 195.42Q953.68 196.06 954.98 196.06" fill="white" fill-opacity="0.7"/>
<path d="M967.65 197.64L965.49 197.64L965.49 184.44L967.65 184.44L967.65 186.96L967.70 186.96Q967.86 185.69 968.78 184.94Q969.69 184.20 971.22 184.20Q973.29 184.20 974.40 185.44Q975.52 186.67 975.52 188.95L975.52 190.08L973.36 190.08L973.36 188.95Q973.36 186.07 970.55 186.07Q969.14 186.07 968.39 186.89Q967.65 187.70 967.65 189.24" fill="white" fill-opacity="0.7"/>
<path d="M990.52 197.64L979.24 197.64L979.24 195.67L983.92 195.67L983.92 186.41L979.72 186.41L979.72 184.44L986.08 184.44L986.08 195.67L990.52 195.67L990.52 197.64M984.76 182.06Q983.97 182.06 983.51 181.66Q983.06 181.25 983.06 180.55Q983.06 179.83 983.51 179.41Q983.97 178.99 984.76 178.99Q985.55 178.99 986.01 179.41Q986.46 179.83 986.46 180.55Q986.46 181.25 986.01 181.66Q985.55 182.06 984.76 182.06" fill="white" fill-opacity="0.7"/>
<path d="M995.97 197.64L993.81 197.64L993.81 184.44L995.97 184.44L995.97 186.96L995.99 186.96Q996.16 185.64 997.07 184.92Q997.98 184.20 999.50 184.20Q1001.49 184.20 1002.66 185.42Q1003.84 186.65 1003.84 188.76L1003.84 197.64L1001.68 197.64L1001.68 189.14Q1001.68 187.63 1000.92 186.83Q1000.17 186.02 998.87 186.02Q997.53 186.02 996.75 186.86Q995.97 187.70 995.97 189.24" fill="white" fill-opacity="0.7"/>
<path d="M1013.20 197.88Q1010.87 197.88 1009.44 196.48Q1008.02 195.07 1008.02 192.60L1008.02 189.48Q1008.02 187.01 1009.44 185.60Q1010.87 184.20 1013.20 184.20Q1014.76 184.20 1015.92 184.82Q1017.09 185.45 1017.74 186.58Q1018.38 187.70 1018.38 189.24L1018.38 191.59L1010.13 191.59L1010.13 192.84Q1010.13 194.30 1010.97 195.16Q1011.81 196.01 1013.20 196.01Q1014.40 196.01 1015.18 195.54Q1015.96 195.07 1016.13 194.28L1018.29 194.28Q1018.07 195.94 1016.68 196.91Q1015.29 197.88 1013.20 197.88M1010.13 189.24L1010.13 189.91L1016.27 189.91L1016.27 189.24Q1016.27 187.68 1015.47 186.83Q1014.66 185.98 1013.20 185.98Q1011.74 185.98 1010.93 186.83Q1010.13 187.68 1010.13 189.24" fill="white" fill-opacity="0.7"/>
<path d="M1042.12 197.64L1039.96 197.64L1039.96 188.21L1036.12 188.21L1036.12 186.24L1039.96 186.24L1039.96 183.48Q1039.96 181.92 1040.94 181.02Q1041.93 180.12 1043.66 180.12L1047.52 180.12L1047.52 182.09L1043.66 182.09Q1042.12 182.09 1042.12 183.48L1042.12 186.24L1047.52 186.24L1047.52 188.21L1042.12 188.21" fill="white" fill-opacity="0.7"/>
<path d="M1056.40 197.83Q1054.02 197.83 1052.62 196.44Q1051.22 195.05 1051.22 192.55L1051.22 189.53Q1051.22 187.01 1052.61 185.63Q1054 184.25 1056.40 184.25Q1058.80 184.25 1060.19 185.63Q1061.58 187.01 1061.58 189.53L1061.58 192.55Q1061.58 195.05 1060.18 196.44Q1058.78 197.83 1056.40 197.83M1056.40 195.91Q1057.82 195.91 1058.62 195.12Q1059.42 194.33 1059.42 192.79L1059.42 189.29Q1059.42 187.75 1058.62 186.96Q1057.82 186.17 1056.40 186.17Q1055.01 186.17 1054.19 186.96Q1053.38 187.75 1053.38 189.29L1053.38 192.79Q1053.38 194.33 1054.19 195.12Q1055.01 195.91 1056.40 195.91" fill="white" fill-opacity="0.7"/>
<path d="M1068.45 197.64L1066.29 197.64L1066.29 184.44L1068.45 184.44L1068.45 186.96L1068.50 186.96Q1068.66 185.69 1069.58 184.94Q1070.49 184.20 1072.02 184.20Q1074.09 184.20 1075.20 185.44Q1076.32 186.67 1076.32 188.95L1076.32 190.08L1074.16 190.08L1074.16 188.95Q1074.16 186.07 1071.35 186.07Q1069.94 186.07 1069.19 186.89Q1068.45 187.70 1068.45 189.24" fill="white" fill-opacity="0.7"/>
<path d="M81.88 229.64L72.52 229.64L72.52 227.67L76.10 227.67L76.10 214.09L72.52 214.09L72.52 212.12L81.88 212.12L81.88 214.09L78.30 214.09L78.30 227.67L81.88 227.67" fill="white" fill-opacity="0.7"/>
<path d="M88.77 229.64L86.61 229.64L86.61 216.44L88.77 216.44L88.77 218.96L88.79 218.96Q88.96 217.64 89.87 216.92Q90.78 216.20 92.30 216.20Q94.29 216.20 95.46 217.42Q96.64 218.65 96.64 220.76L96.64 229.64L94.48 229.64L94.48 221.14Q94.48 219.63 93.72 218.83Q92.97 218.02 91.67 218.02Q90.33 218.02 89.55 218.86Q88.77 219.70 88.77 221.24" fill="white" fill-opacity="0.7"/>
<path d="M105.23 229.88Q103.26 229.88 102.08 228.56Q100.89 227.24 100.89 224.98L100.89 221.12Q100.89 218.84 102.06 217.52Q103.24 216.20 105.23 216.20Q106.72 216.20 107.69 216.94Q108.66 217.69 108.86 218.96L108.88 218.96L108.83 215.96L108.83 212.12L110.99 212.12L110.99 229.64L108.83 229.64L108.83 227.12L108.81 227.12Q108.64 228.42 107.68 229.15Q106.72 229.88 105.23 229.88M105.95 228.01Q107.30 228.01 108.06 227.17Q108.83 226.33 108.83 224.84L108.83 221.24Q108.83 219.75 108.06 218.91Q107.30 218.07 105.95 218.07Q104.58 218.07 103.82 218.78Q103.05 219.49 103.05 221.12L103.05 224.96Q103.05 226.57 103.82 227.29Q104.58 228.01 105.95 228.01" fill="white" fill-opacity="0.7"/>
<path d="M126.52 229.64L115.24 229.64L115.24 227.67L119.92 227.67L119.92 218.41L115.72 218.41L115.72 216.44L122.08 216.44L122.08 227.67L126.52 227.67L126.52 229.64M120.76 214.06Q119.97 214.06 119.51 213.66Q119.06 213.25 119.06 212.55Q119.06 211.83 119.51 211.41Q119.97 210.99 120.76 210.99Q121.55 210.99 122.01 211.41Q122.46 211.83 122.46 212.55Q122.46 213.25 122.01 213.66Q121.55 214.06 120.76 214.06" fill="white" fill-opacity="0.7"/>
<path d="M133.65 229.88Q131.61 229.88 130.41 228.74Q129.21 227.60 129.21 225.75Q129.21 224.53 129.76 223.62Q130.31 222.70 131.30 222.19Q132.28 221.67 133.55 221.67L137.63 221.67L137.63 220.64Q137.63 218.07 134.82 218.07Q133.58 218.07 132.81 218.53Q132.04 218.98 131.99 219.80L129.83 219.80Q129.95 218.24 131.28 217.22Q132.62 216.20 134.82 216.20Q137.22 216.20 138.51 217.35Q139.79 218.50 139.79 220.57L139.79 229.64L137.66 229.64L137.66 227.24L137.61 227.24Q137.42 228.46 136.38 229.17Q135.35 229.88 133.65 229.88M134.18 228.06Q135.76 228.06 136.70 227.29Q137.63 226.52 137.63 225.20L137.63 223.35L133.79 223.35Q132.74 223.35 132.08 223.99Q131.42 224.62 131.42 225.68Q131.42 226.78 132.15 227.42Q132.88 228.06 134.18 228.06" fill="white" fill-opacity="0.7"/>
<path d="M146.37 229.64L144.21 229.64L144.21 216.44L146.37 216.44L146.37 218.96L146.39 218.96Q146.56 217.64 147.47 216.92Q148.38 216.20 149.90 216.20Q151.89 216.20 153.06 217.42Q154.24 218.65 154.24 220.76L154.24 229.64L152.08 229.64L152.08 221.14Q152.08 219.63 151.32 218.83Q150.57 218.02 149.27 218.02Q147.93 218.02 147.15 218.86Q146.37 219.70 146.37 221.24" fill="white" fill-opacity="0.7"/>
<path d="M178.19 229.88Q175.79 229.88 174.35 228.54Q172.91 227.19 172.91 224.84L172.91 221.24Q172.91 218.89 174.35 217.54Q175.79 216.20 178.19 216.20Q180.47 216.20 181.88 217.42Q183.28 218.65 183.35 220.76L181.19 220.76Q181.12 219.49 180.33 218.80Q179.54 218.12 178.19 218.12Q176.78 218.12 175.92 218.92Q175.07 219.73 175.07 221.22L175.07 224.84Q175.07 226.33 175.92 227.14Q176.78 227.96 178.19 227.96Q179.54 227.96 180.33 227.26Q181.12 226.57 181.19 225.32L183.35 225.32Q183.28 227.43 181.88 228.66Q180.47 229.88 178.19 229.88" fill="white" fill-opacity="0.7"/>
<path d="M198.52 229.64L187.24 229.64L187.24 227.67L191.92 227.67L191.92 218.41L187.72 218.41L187.72 216.44L194.08 216.44L194.08 227.67L198.52 227.67L198.52 229.64M192.76 214.06Q191.97 214.06 191.51 213.66Q191.06 213.25 191.06 212.55Q191.06 211.83 191.51 211.41Q191.97 210.99 192.76 210.99Q193.55 210.99 194.01 211.41Q194.46 211.83 194.46 212.55Q194.46 213.25 194.01 213.66Q193.55 214.06 192.76 214.06" fill="white" fill-opacity="0.7"/>
<path d="M211.96 229.64L208.12 229.64Q206.49 229.64 205.50 228.69Q204.52 227.74 204.52 226.16L204.52 218.41L200.73 218.41L200.73 216.44L204.52 216.44L204.52 212.72L206.68 212.72L206.68 216.44L212.08 216.44L212.08 218.41L206.68 218.41L206.68 226.16Q206.68 226.83 207.08 227.25Q207.47 227.67 208.12 227.67L211.96 227.67" fill="white" fill-opacity="0.7"/>
<path d="M227.32 229.64L216.04 229.64L216.04 227.67L220.72 227.67L220.72 218.41L216.52 218.41L216.52 216.44L222.88 216.44L222.88 227.67L227.32 227.67L227.32 229.64M221.56 214.06Q220.77 214.06 220.31 213.66Q219.86 213.25 219.86 212.55Q219.86 211.83 220.31 211.41Q220.77 210.99 221.56 210.99Q222.35 210.99 222.81 211.41Q223.26 211.83 223.26 212.55Q223.26 213.25 222.81 213.66Q222.35 214.06 221.56 214.06" fill="white" fill-opacity="0.7"/>
<path d="M240.64 229.64L230.56 229.64L230.56 227.48L237.95 218.41L230.75 218.41L230.75 216.44L240.38 216.44L240.38 218.60L232.84 227.67L240.64 227.67" fill="white" fill-opacity="0.7"/>
<path d="MNaN 229.88Q247.67 229.88 246.24 228.48Q244.82 227.07 244.82 224.60L244.82 221.48Q244.82 219.01 246.24 217.60Q247.67 216.20 NaN 216.20Q251.56 216.20 252.72 216.82Q253.89 217.45 254.54 218.58Q255.18 219.70 255.18 221.24L255.18 223.59L246.93 223.59L246.93 224.84Q246.93 226.30 247.77 227.16Q248.61 228.01 NaN 228.01Q251.20 228.01 251.98 227.54Q252.76 227.07 252.93 226.28L255.09 226.28Q254.87 227.94 253.48 228.91Q252.09 229.88 NaN 229.88M246.93 221.24L246.93 221.91L253.07 221.91L253.07 221.24Q253.07 219.68 252.27 218.83Q251.46 217.98 NaN 217.98Q248.54 217.98 247.73 218.83Q246.93 219.68 246.93 221.24" fill="white" fill-opacity="0.7"/>
<path d="M261.57 229.64L259.41 229.64L259.41 216.44L261.57 216.44L261.57 218.96L261.59 218.96Q261.76 217.64 262.67 216.92Q263.58 216.20 265.10 216.20Q267.09 216.20 268.26 217.42Q269.44 218.65 269.44 220.76L269.44 229.64L267.28 229.64L267.28 221.14Q267.28 219.63 266.52 218.83Q265.77 218.02 264.47 218.02Q263.13 218.02 262.35 218.86Q261.57 219.70 261.57 221.24" fill="white" fill-opacity="0.7"/>
<path d="M279.33 229.83L278.27 229.83Q276.06 229.83 274.85 228.84Q273.64 227.84 273.64 226.02L275.80 226.02Q275.80 226.93 276.45 227.44Q277.10 227.96 278.27 227.96L279.33 227.96Q280.53 227.96 281.19 227.43Q281.85 226.90 281.85 225.94Q281.85 224.24 280.29 224.02L276.64 223.50Q275.30 223.30 274.55 222.38Q273.81 221.46 273.81 219.94Q273.81 218.22 275 217.23Q276.18 216.25 278.27 216.25L279.33 216.25Q281.25 216.25 282.46 217.20Q283.67 218.14 283.77 219.68L281.58 219.68Q281.54 218.98 280.92 218.53Q280.31 218.07 279.33 218.07L278.27 218.07Q277.17 218.07 276.54 218.58Q275.92 219.08 275.92 219.94Q275.92 221.34 277.19 221.53L280.60 222.01Q283.96 222.49 283.96 225.94Q283.96 227.79 282.75 228.81Q281.54 229.83 279.33 229.83" fill="white" fill-opacity="0.7"/>
<path d="M293.20 229.88Q292.31 229.88 291.77 229.35Q291.23 228.82 291.23 227.98Q291.23 227.10 291.77 226.54Q292.31 225.99 293.20 225.99Q294.09 225.99 294.63 226.54Q295.17 227.10 295.17 227.98Q295.17 228.82 294.63 229.35Q294.09 229.88 293.20 229.88" fill="white" fill-opacity="0.7"/>
<path d="M76.11 136.06L66.42 136.06L84.56 65.98L97.14 65.98L115.18 136.06L105.49 136.06L101.07 117.82L80.53 117.82L76.11 136.06M87.54 88.92L82.45 109.95L99.15 109.95L94.16 89.02Q92.72 83.26 91.86 79.23Q90.99 75.20 90.80 73.76Q90.61 75.20 89.74 79.23Q88.88 83.26 87.54 88.92M137.55 136.06L128.05 136.06L128.05 65.98L150.80 65.98Q157.52 65.98 162.42 68.57Q167.31 71.16 170 75.82Q172.69 80.48 172.69 86.91Q172.69 93.24 170 97.90Q167.31 102.56 162.37 105.15Q157.42 107.74 150.80 107.74L137.55 107.74L137.55 136.06M137.55 74.43L137.55 99.29L150.80 99.29Q156.37 99.29 159.63 95.88Q162.90 92.48 162.90 86.91Q162.90 81.24 159.63 77.84Q156.37 74.43 150.80 74.43L137.55 74.43M225.10 136.06L186.90 136.06L186.90 127.42L201.20 127.42L201.20 74.62L186.90 74.62L186.90 65.98L225.10 65.98L225.10 74.62L210.80 74.62L210.80 127.42L225.10 127.42L225.10 136.06M263.98 137.02Q253.62 137.02 247.47 131.60Q241.33 126.17 241.33 116.67L250.83 116.67Q250.83 122.24 254.38 125.40Q257.94 128.57 263.98 128.57Q269.74 128.57 273.15 125.36Q276.56 122.14 276.56 116.76Q276.56 112.73 274.35 109.71Q272.14 106.68 268.11 105.63L257.74 102.84Q250.93 100.92 246.94 95.88Q242.96 90.84 242.96 83.93Q242.96 78.27 245.50 74Q248.05 69.72 252.66 67.37Q257.26 65.02 263.31 65.02Q269.46 65.02 274.11 67.37Q278.77 69.72 281.36 73.95Q283.95 78.17 283.95 83.74L274.54 83.74Q274.54 79.13 271.42 76.25Q268.30 73.37 263.31 73.37Q258.32 73.37 255.30 76.25Q252.27 79.13 252.27 83.74Q252.27 87.48 254.29 90.03Q256.30 92.57 259.95 93.63L270.61 96.51Q277.81 98.43 281.84 103.85Q285.87 109.28 285.87 116.76Q285.87 122.91 283.18 127.47Q280.50 132.03 275.55 134.52Q270.61 137.02 263.98 137.02M342.51 136.06L301.71 136.06L301.71 65.98L342.51 65.98L342.51 74.52L311.12 74.52L311.12 95.36L339.15 95.36L339.15 103.61L311.12 103.61L311.12 127.52L342.51 127.52L342.51 136.06M383.60 136.06L374.10 136.06L374.10 74.62L355.09 74.62L355.09 65.98L402.51 65.98L402.51 74.62L383.60 74.62L383.60 136.06M436.40 137.02Q426.51 137.02 421.18 131.55Q415.86 126.08 415.86 116.67L415.86 65.98L425.36 65.98L425.36 116.67Q425.36 122.24 428.10 125.40Q430.83 128.57 436.40 128.57Q441.87 128.57 444.70 125.40Q447.54 122.24 447.54 116.67L447.54 65.98L457.04 65.98L457.04 116.67Q457.04 126.17 451.71 131.60Q446.38 137.02 436.40 137.02M551.98 137.02Q542.29 137.02 536.58 131.60Q530.86 126.17 530.86 116.67L530.86 85.28Q530.86 75.87 536.58 70.44Q542.29 65.02 551.98 65.02Q561.58 65.02 567.30 70.49Q573.01 75.96 573.01 85.28L563.50 85.28Q563.50 79.61 560.43 76.54Q557.36 73.47 551.98 73.47Q546.51 73.47 543.44 76.54Q540.37 79.61 540.37 85.28L540.37 116.67Q540.37 122.43 543.44 125.50Q546.51 128.57 551.98 128.57Q557.36 128.57 560.43 125.50Q563.50 122.43 563.50 116.67L563.50 107.55L549.87 107.55L549.87 99.10L573.01 99.10L573.01 116.67Q573.01 126.08 567.30 131.55Q561.58 137.02 551.98 137.02M609.20 137.02Q599.60 137.02 594.03 131.45Q588.46 125.88 588.46 115.71L588.46 86.24Q588.46 76.16 594.03 70.59Q599.60 65.02 609.20 65.02Q618.80 65.02 624.37 70.54Q629.94 76.06 629.94 86.24L629.94 115.71Q629.94 125.88 624.37 131.45Q618.80 137.02 609.20 137.02M609.20 128.57Q614.58 128.57 617.50 125.50Q620.43 122.43 620.43 116.67L620.43 85.28Q620.43 79.61 617.55 76.54Q614.67 73.47 609.20 73.47Q603.73 73.47 600.85 76.54Q597.97 79.61 597.97 85.28L597.97 116.67Q597.97 122.43 600.90 125.50Q603.82 128.57 609.20 128.57M673.14 136.06L660.37 136.06L642.42 65.98L652.21 65.98L663.82 113.21Q664.98 117.72 665.79 121.90Q666.61 126.08 666.99 128.28Q667.28 126.08 668.19 121.85Q669.10 117.63 670.16 113.12L681.39 65.98L691.18 65.98L673.14 136.06M770.38 136.06L761.46 136.06L761.46 65.98L773.74 65.98L794.67 125.12Q794.38 122.62 794.14 118.92Q793.90 115.23 793.76 111.24Q793.62 107.26 793.62 103.71L793.62 65.98L802.64 65.98L802.64 136.06L790.26 136.06L769.52 76.92Q769.71 79.42 769.90 83.02Q770.10 86.62 770.24 90.56Q770.38 94.49 770.38 97.95L770.38 136.06M860.91 136.06L820.11 136.06L820.11 65.98L860.91 65.98L860.91 74.52L829.52 74.52L829.52 95.36L857.55 95.36L857.55 103.61L829.52 103.61L829.52 127.52L860.91 127.52L860.91 136.06M889.71 136.06L878.29 136.06L870.22 65.98L878.67 65.98L883.86 117.05Q884.14 120.12 884.38 123.63Q884.62 127.13 884.72 129.34Q884.91 127.13 885.20 123.63Q885.49 120.12 885.97 117.05L892.69 65.98L902.19 65.98L908.43 117.05Q908.72 120.12 909.10 123.63Q909.49 127.13 909.78 129.34Q909.87 127.13 910.16 123.63Q910.45 120.12 910.74 117.05L916.02 65.98L924.27 65.98L915.92 136.06L904.40 136.06L898.35 84.22Q897.97 81.05 897.73 77.74Q897.49 74.43 897.39 72.41Q897.10 74.43 896.91 77.74Q896.72 81.05 896.34 84.22L889.71 136.06M973.90 136.06L935.70 136.06L935.70 127.42LNaN 127.42LNaN 74.62L935.70 74.62L935.70 65.98L973.90 65.98L973.90 74.62L959.60 74.62L959.60 127.42L973.90 127.42L973.90 136.06M1000.78 136.06L991.86 136.06L991.86 65.98L1004.14 65.98L1025.07 125.12Q1024.78 122.62 1024.54 118.92Q1024.30 115.23 1024.16 111.24Q1024.02 107.26 1024.02 103.71L1024.02 65.98L1033.04 65.98L1033.04 136.06L1020.66 136.06L999.92 76.92Q1000.11 79.42 1000.30 83.02Q1000.50 86.62 1000.64 90.56Q1000.78 94.49 1000.78 97.95L1000.78 136.06M1068.46 136.06L1049.65 136.06L1049.65 65.98L1068.46 65.98Q1075.28 65.98 1080.32 68.62Q1085.36 71.26 1088.14 76.01Q1090.93 80.76 1090.93 87.20L1090.93 114.75Q1090.93 121.18 1088.14 125.98Q1085.36 130.78 1080.32 133.42Q1075.28 136.06 1068.46 136.06M1059.15 74.43L1059.15 127.61L1068.46 127.61Q1074.51 127.61 1077.97 124.16Q1081.42 120.70 1081.42 114.75L1081.42 87.20Q1081.42 81.24 1077.97 77.84Q1074.51 74.43 1068.46 74.43L1059.15 74.43M1146.70 136.06L1108.50 136.06L1108.50 127.42L1122.80 127.42L1122.80 74.62L1108.50 74.62L1108.50 65.98L1146.70 65.98L1146.70 74.62L1132.40 74.62L1132.40 127.42L1146.70 127.42L1146.70 136.06M1170.51 136.06L1160.82 136.06L1178.96 65.98L1191.54 65.98L1209.58 136.06L1199.89 136.06L1195.47 117.82L1174.93 117.82L1170.51 136.06M1181.94 88.92L1176.85 109.95L1193.55 109.95L1188.56 89.02Q1187.12 83.26 1186.26 79.23Q1185.39 75.20 1185.20 73.76Q1185.01 75.20 1184.14 79.23Q1183.28 83.26 1181.94 88.92" fill="url(#paint2_linear_0_1)"/>
<g id="Group 1">
<rect id="Rectangle 1" x="26" y="168" width="12" height="184" rx="5" fill="url(#paint3_linear_0_1)" fill-opacity="0.9"/>
</g>
<g id="Group 1_2">
<rect id="Rectangle 2" x="26" y="38" width="12" height="119" rx="5" fill="url(#paint4_linear_0_1)" fill-opacity="0.9"/>
</g>
<ellipse id="Ellipse 1" cx="148.5" cy="573" rx="215.5" ry="214" fill="url(#paint5_linear_0_1)" fill-opacity="0.4"/>
<rect id="Rectangle 3" x="1229" y="48" width="300" height="300" rx="25" fill="#FFFBFB" fill-opacity="0.9"/>
<g id="placeholder-logo"><g transform="translate(1229,48) translate(0.0,60.0) scale(1.2000)"><g fill="#666666">
  <path d="m88.05,27.65c-3.15,4 -3.2,51.2 -0.05,54.35c2.75,2.75 71.7,3.15 74.45,0.45c2.85,-2.9 2.3,-53.85 -0.65,-55.9c-1.95,-1.35 -7.15,-1.55 -36.95,-1.55l-34.7,0l-2.1,2.65zm69.45,3.35c0.65,0 1,8.6 1,23.75l0,23.75l-33,0l-33,0l-0.25,-23c-0.15,-12.6 -0.1,-23.45 0.15,-24.1c0.35,-0.85 8.9,-1.05 32.25,-0.75c17.55,0.2 32.3,0.35 32.85,0.35z"/>
  <path d="m99.15,37.3c-6.85,7.35 4.25,17.35 11.4,10.25c1.35,-1.35 2.45,-3.65 2.45,-5.05c0,-6.45 -9.35,-9.95 -13.85,-5.2z"/>
  <path d="m135,42.5c-0.7,0.85 -5.25,5.15 -10.1,9.6l-8.85,8.1l-3.2,-3.2l-3.15,-3.15l-6.35,6.3c-5.55,5.5 -6.35,6.75 -6.35,10.05l0,3.8l28.5,0l28.5,0l0,-8.6l0,-8.55l-8.15,-7.7c-9.35,-8.85 -9.15,-8.7 -10.85,-6.65zm7.25,15.2c0.95,0.9 1.75,2.9 1.75,4.45c6.35,-5.05 4.75,-7.15 4.9,-11.55c0.95,0 0,0 0,0l-6.65,7.1z"/>
  <path d="m53.65,110.75c0.1,4.8 0.45,8.65 0.75,8.5c0.35,-0.15 1.3,-0.25 2.1,-0.25c1.1,0 1.5,-1.2 1.5,-4.75l0,-4.75l3.25,5c4.9,7.5 6.2,6.75 6.55,-3.75c0.25,-8.15 0.15,-8.75 -1.7,-8.75c-1.65,0 -2.05,0.8 -2.3,4.75l-0.3,4.75l-2.8,-4.75c-4.85,-8.25 -7.25,-6.9 -7.05,4z"/>
  <path d="m91,108.9c0,9.65 0.3,10.1 6.1,10.1c5.8,0 7.15,-2.65 1.65,-3.2l-3.25,-0.3l-0.3,-6.75c-0.25,-5.95 -0.55,-6.75 -2.25,-6.75c-1.75,0 -1.95,0.7 -1.95,6.9z"/>
  <path d="m151,102.45c0,0.25 1,2.15 2.25,4.2c1.2,2.1 2.45,5.8 2.75,8.25c0.65,5.9 4,6.95 4,1.25c0.05,-2.1 1.25,-5.85 2.95,-8.9l2.9,-5.25l-2.5,0c-1.8,0 -2.8,0.85 -3.75,3.1l-1.3,3.05l-1.25,-3.05c-1.1,-2.6 -6.05,-4.8 -6.05,-2.65z"/>
  <path d="m191,107.45c0,9.05 3.4,8.85 4.25,-0.2c0.45,-5 0.35,-5.25 -1.9,-5.25c-2.2,0 -2.35,0.4 -2.35,5.45z"/>
  <path d="m180.8,104.75c-1.3,5.35 0.65,13.6 3.45,14.35c2.3,0.6 2.75,0.4 2.75,-1.2c0,-1.05 -0.45,-1.9 -1,-1.9c-0.55,0 -1,-1.6 -1,-3.5c0,-1.95 0.45,-3.5 1,-3.5c0.55,0 1,-0.7 1,-1.5c0,-0.85 -0.45,-1.5 -1,-1.5c-0.55,0 -1,-0.7 -1,-1.5c0,-2.1 -3.65,-1.9 -4.2,0.25z"/>
  <path d="m71.55,106.55c-2.2,2.25 -2.05,9.7 0.3,11.8c4.5,4.1 10.15,0.75 10.15,-6.1c0,-4.85 -2,-7.25 -6,-7.25c-1.55,0 -3.55,0.7 -4.45,1.55zm6.25,5.8c0.25,3.05 0,3.65 -1.6,3.65c-2.3,0 -3.25,-2.65 -2.05,-5.85c1.25,-3.35 3.3,-2.1 3.65,2.2z"/>
  <path d="m105.75,106.1c-2.5,1.45 -2.45,9.95 0.1,12.25c4.3,3.9 10.15,0.35 10.15,-6.2c0,-6 -5.15,-9.05 -10.25,-6.05zm6.05,6.25c0.25,3.05 0,3.65 -1.6,3.65c-2.3,0 -3.25,-2.65 -2.05,-5.85c1.25,-3.35 3.3,-2.1 3.65,2.2z"/>
  <path d="m119.2,106.2c-3.8,3.8 -0.4,12.55 4.4,11.35c1.9,-0.45 2.45,-0.3 2.15,0.65c-0.25,0.7 -1.55,1.2 -2.85,1.1c-4.05,-0.3 -5.35,0.45 -3.85,2.25c0.85,1.05 2.6,1.45 5.35,1.25l4.1,-0.3l0.3,-8.75l0.3,-8.75l-4.35,0c-2.4,0 -4.9,0.55 -5.55,1.2zm6.6,4.45c0.4,2.85 -2.15,4.85 -3.75,2.95c-0.9,-1.1 -0.9,-2 -0.05,-3.6c1.35,-2.5 3.4,-2.15 3.8,0.65z"/>
  <path d="m133.55,106.55c-2.2,2.25 -2.05,9.7 0.3,11.8c4.5,4.1 10.15,0.75 10.15,-6.1c0,-4.85 -2,-7.25 -6,-7.25c-1.55,0 -3.55,0.7 -4.45,1.55zm6.25,5.8c0.25,3.05 0,3.65 -1.6,3.65c-2.3,0 -3.25,-2.65 -2.05,-5.85c1.25,-3.35 3.3,-2.1 3.65,2.2z"/>
  <path d="m167.65,106.85c-3.9,4.3 -0.75,13.15 4.7,13.15c2.4,0 5.65,-2.75 5.65,-4.85c0,-1.4 -2.65,-1.55 -3.5,-0.15c-0.95,1.55 -4.5,1.15 -4.5,-0.5c0,-1.1 1.1,-1.5 4,-1.5c3.15,0 4,-0.35 4,-1.8c0,-5.3 -6.85,-8.25 -10.35,-4.35z"/>
  <path d="m191,117.5c0,2.15 0.4,2.6 2.25,2.3c1.5,-0.2 2.25,-1 2.25,-2.3c0,-1.3 -0.75,-2.1 -2.25,-2.3c-1.85,-0.3 -2.25,0.15 -2.25,2.3z"/>
 </g></g></g>
</g>
<defs>
<linearGradient id="paint0_linear_0_1" x1="0" y1="198" x2="1584" y2="198" gradientUnits="userSpaceOnUse">
<stop stop-color="#3D052C"/>
<stop offset="1"/>
</linearGradient>
<linearGradient id="paint1_linear_0_1" x1="323" y1="-224" x2="323" y2="352" gradientUnits="userSpaceOnUse">
<stop stop-color="#28F6F2" stop-opacity="0.4"/>
<stop offset="1" stop-color="#17908E" stop-opacity="0.7"/>
</linearGradient>
<linearGradient id="paint2_linear_0_1" x1="148.5" y1="38" x2="148.5" y2="140" gradientUnits="userSpaceOnUse">
<stop stop-color="white"/>
<stop offset="1" stop-color="#999999"/>
</linearGradient>
<linearGradient id="paint3_linear_0_1" x1="38" y1="260" x2="26" y2="260" gradientUnits="userSpaceOnUse">
<stop stop-color="#D9D9D9"/>
<stop offset="1" stop-color="#737373"/>
</linearGradient>
<linearGradient id="paint4_linear_0_1" x1="38" y1="97.5" x2="26" y2="97.5" gradientUnits="userSpaceOnUse">
<stop stop-color="#D9D9D9"/>
<stop offset="1" stop-color="#737373"/>
</linearGradient>
<linearGradient id="paint5_linear_0_1" x1="27.5" y1="434.5" x2="148.5" y2="787" gradientUnits="userSpaceOnUse">
<stop stop-color="#2E21BC"/>
<stop offset="1" stop-color="#150F56"/>
</linearGradient>
<clipPath id="clip0_0_1">
<rect width="1584" height="396" fill="white"/>
</clipPath>
</defs>
</svg>
